<svg width="200" height="200" viewBox="0 0 200 200" fill="none" xmlns="http://www.w3.org/2000/svg">
<g clip-path="url(#clip0)">
<rect width="200" height="200" rx="8" fill="white"/>
<path d="M100 86.6667C92.7733 86.6667 86.6667 92.7733 86.6667 100C86.6667 107.227 92.7733 113.333 100 113.333C107.227 113.333 113.333 107.227 113.333 100C113.333 92.7733 107.227 86.6667 100 86.6667ZM100 106.667C96.45 106.667 93.3333 103.55 93.3333 100C93.3333 96.45 96.45 93.3333 100 93.3333C103.55 93.3333 106.667 96.45 106.667 100C106.667 103.55 103.55 106.667 100 106.667Z" fill="#EC1A2D"/>
<path d="M126.667 76.6667H118.047L109.023 67.6433C108.4 67.0167 107.553 66.6667 106.667 66.6667H93.3333C92.4467 66.6667 91.6 67.0167 90.9767 67.6433L81.9533 76.6667H73.3333C69.6567 76.6667 66.6667 79.6567 66.6667 83.3333V120C66.6667 123.677 69.6567 126.667 73.3333 126.667H126.667C130.343 126.667 133.333 123.677 133.333 120V83.3333C133.333 79.6567 130.343 76.6667 126.667 76.6667ZM73.3333 120V83.3333H83.3333C84.22 83.3333 85.0667 82.9833 85.69 82.3567L94.7133 73.3333H105.287L114.31 82.3567C114.933 82.9833 115.78 83.3333 116.667 83.3333H126.667L126.673 120H73.3333Z" fill="#EC1A2D"/>
</g>
<defs>
<clipPath id="clip0">
<rect width="200" height="200" fill="white"/>
</clipPath>
</defs>
</svg>
